<?xml version="1.0" encoding="UTF-8"?>
<svg width="34px" height="34px" viewBox="0 0 34 34" version="1.1" xmlns="http://www.w3.org/2000/svg" xmlns:xlink="http://www.w3.org/1999/xlink">
    <title>编组 21备份</title>
    <g id="分享" stroke="none" stroke-width="1" fill="none" fill-rule="evenodd">
        <g id="个人中心入口" transform="translate(-402.000000, -834.000000)">
            <g id="书籍" transform="translate(202.000000, 274.000000)">
                <g id="编组-4备份" transform="translate(24.000000, 530.000000)">
                    <g id="编组-21备份" transform="translate(176.000000, 30.000000)">
                        <circle id="椭圆形备份-5" fill="#25D366" cx="17" cy="17" r="17"></circle>
                        <path d="M16.9981152,9.44444444 L17.0018929,9.44444444 C21.1681455,9.44444444 24.5555475,12.8337407 24.5555475,17 C24.5555475,21.1662593 21.1675159,24.5555556 17.0018929,24.5555556 C15.4655991,24.5555556 14.0401199,24.0978148 12.8463441,23.3076296 L9.94186723,24.2357037 L10.883162,21.4281852 C9.94597333,20.1421254 9.44211924,18.5913107 9.44445251,17 C9.44445251,12.8337407 12.8324922,9.44444444 16.9981152,9.44444444 Z M14.8366001,13.5974815 C14.6924152,13.2530741 14.5828598,13.2398518 14.3643787,13.231037 C14.2813729,13.2256383 14.1982255,13.2226987 14.1150457,13.2222222 C13.8304536,13.2222222 13.5332689,13.3053333 13.3531951,13.4885556 C13.1359732,13.7108148 12.5926037,14.2296296 12.5926037,15.2955926 C12.5926037,16.3602963 13.3714543,17.3903704 13.4759727,17.5345556 C13.5855281,17.6781111 14.9946369,19.8956667 17.1813371,20.7991852 C18.8920381,21.5062593 19.3995187,21.4407778 19.7892588,21.3576667 C20.3578135,21.2355185 21.0705531,20.8161852 21.2499972,20.3105926 C21.4294414,19.8037407 21.4294414,19.3718148 21.3771822,19.2798889 C21.3242934,19.1885926 21.1801084,19.1363333 20.9616273,19.0267778 C20.7425166,18.9178519 19.6797035,18.394 19.4782223,18.3241111 C19.2811485,18.2504444 19.0935192,18.2762593 18.9449269,18.4859259 C18.7346309,18.7780741 18.529372,19.0752593 18.3625204,19.2540741 C18.2315576,19.3938519 18.0168543,19.4114815 17.8380397,19.3371852 C17.5975216,19.2364444 16.923819,19.000963 16.0920796,18.263037 C15.4492288,17.6913333 15.0116369,16.9798518 14.8850815,16.7664074 C14.7578965,16.5479259 14.8718593,16.4213704 14.9725999,16.3036296 C15.0815257,16.1682593 15.1866736,16.0725556 15.296229,15.946 C15.4057844,15.8194444 15.4662287,15.753963 15.5367471,15.6053704 C15.6110433,15.4611852 15.5587841,15.3125926 15.5058953,15.2036667 C15.4536362,15.0947407 15.0160443,14.0294074 14.8366001,13.5981111 L14.8366001,13.5974815 Z" id="形状" fill="#FFFFFF" fill-rule="nonzero"></path>
                    </g>
                </g>
            </g>
        </g>
    </g>
</svg>