<?xml version="1.0" encoding="UTF-8"?>
<svg width="34px" height="34px" viewBox="0 0 34 34" version="1.1" xmlns="http://www.w3.org/2000/svg" xmlns:xlink="http://www.w3.org/1999/xlink">
    <title>编组 21备份 2</title>
    <g id="分享" stroke="none" stroke-width="1" fill="none" fill-rule="evenodd">
        <g id="个人中心入口" transform="translate(-446.000000, -834.000000)">
            <g id="书籍" transform="translate(202.000000, 274.000000)">
                <g id="编组-4备份" transform="translate(24.000000, 530.000000)">
                    <g id="编组-21备份-2" transform="translate(220.000000, 30.000000)">
                        <circle id="椭圆形备份-5" fill="#6F6F6F" cx="17" cy="17" r="17"></circle>
                        <g id="编组-16" transform="translate(9.916667, 13.458333)" fill="#FFFFFF">
                            <path d="M10.625,0 C12.5810085,0 14.1666667,1.58565818 14.1666667,3.54166667 C14.1666667,5.49767516 12.5810085,7.08333333 10.625,7.08333333 L10.625,7.08333333 L7.79166667,7.08333333 L7.791,5.666 L10.625,5.66666667 C11.7475788,5.66666667 12.66685,4.79620327 12.7446645,3.69342549 L12.75,3.54166667 C12.75,2.36806157 11.7986051,1.41666667 10.625,1.41666667 L10.625,1.41666667 L7.791,1.416 L7.79166667,-4.75486259e-15 Z M6.374,1.416 L3.54166667,1.41666667 C2.36806157,1.41666667 1.41666667,2.36806157 1.41666667,3.54166667 C1.41666667,4.71527176 2.36806157,5.66666667 3.54166667,5.66666667 L3.54166667,5.66666667 L6.374,5.666 L6.375,7.08333333 L3.54166667,7.08333333 C1.58565818,7.08333333 0,5.49767516 0,3.54166667 C0,1.58565818 1.58565818,0 3.54166667,0 L3.54166667,0 L6.375,-5.01510003e-15 L6.374,1.416 Z" id="形状结合" fill-rule="nonzero"></path>
                            <rect id="矩形" x="4.25" y="2.83333333" width="5.66666667" height="1.41666667"></rect>
                        </g>
                    </g>
                </g>
            </g>
        </g>
    </g>
</svg>