<?xml version="1.0" encoding="UTF-8"?><svg version="1.1" width="34px" height="34px" viewBox="0 0 34.0 34.0" xmlns="http://www.w3.org/2000/svg" xmlns:xlink="http://www.w3.org/1999/xlink"><defs><clipPath id="i0"><path d="M375,0 L375,3230 L0,3230 L0,0 L375,0 Z"></path></clipPath><clipPath id="i1"><path d="M17,0 C26.3888407,0 34,7.61115925 34,17 C34,26.3888407 26.3888407,34 17,34 C7.61115925,34 0,26.3888407 0,17 C0,7.61115925 7.61115925,0 17,0 Z"></path></clipPath><clipPath id="i2"><path d="M16.8648091,0.84524334 C17.2849773,0.123360065 18.1673192,-0.186347046 18.9464929,0.114560318 C19.7256665,0.415467682 20.1708149,1.23783539 19.9967186,2.05474865 C19.8226224,2.87166191 19.0808634,3.44108215 18.2467082,3.39816533 C17.412553,3.35524851 16.7331486,2.71271022 16.6438091,1.88224334 L13.0058091,1.11724334 L11.9008091,6.42124334 C14.2386549,6.471393 16.5119256,7.19765871 18.4458091,8.51224334 C19.1515142,7.83492312 20.1892202,7.63524956 21.0958852,8.00232039 C22.0025502,8.36939122 22.6090715,9.2347439 22.6448091,10.2122433 C22.6596008,11.1682204 22.1239775,12.0477006 21.2678091,12.4732433 C21.2869499,12.7222093 21.2869499,12.9722774 21.2678091,13.2212433 C21.2678091,17.0292433 16.8308091,20.1232433 11.3568091,20.1232433 C5.88280911,20.1232433 1.44580911,17.0292433 1.44580911,13.2212433 C1.42666829,12.9722774 1.42666829,12.7222093 1.44580911,12.4732433 C0.552293267,12.0627296 -0.0146279039,11.1634334 0.000287299874,10.1802398 C0.0152025036,9.19704615 0.609141456,8.31536038 1.51469839,7.93213882 C2.42025532,7.54891726 3.46666531,7.73642573 4.18280911,8.41024334 C6.14167186,7.08173701 8.4462083,6.35492167 10.8128091,6.31924334 L12.0708091,0.42024334 C12.0993447,0.282301859 12.1819158,0.16152537 12.3000936,0.0848694661 C12.4182715,0.00821356176 12.562219,-0.0179409157 12.6998091,0.0122433405 Z M7.76980911,15.9412433 C7.58732146,15.7914715 7.32098432,15.8045523 7.15405118,15.9714854 C6.98711805,16.1384186 6.97403728,16.4047557 7.12380911,16.5872433 C8.32992,17.4961556 9.81386362,17.9587615 11.3228091,17.8962433 C12.8317546,17.9587615 14.3156982,17.4961556 15.5218091,16.5872433 L15.5218091,16.6552433 C15.6432794,16.5368098 15.6923391,16.3625691 15.6505078,16.1981559 C15.6086765,16.0337428 15.4823094,15.9041355 15.3190078,15.8581559 C15.1557061,15.8121763 14.9802794,15.8568098 14.8588091,15.9752433 C13.8270896,16.7153613 12.5736678,17.0811925 11.3058091,17.0122433 C10.0395092,17.0688236 8.7918996,16.6909419 7.76980911,15.9412433 Z M15.2158091,10.2802433 C14.276925,10.2802433 13.5158091,11.0413593 13.5158091,11.9802433 C13.5158091,12.9191274 14.276925,13.6802433 15.2158091,13.6802433 L15.1988091,13.7482433 C15.6646531,13.753276 16.1121509,13.5669115 16.436716,13.2327058 C16.7612812,12.8985001 16.9344711,12.4457406 16.9158091,11.9802433 C16.9158091,11.0413593 16.1546932,10.2802433 15.2158091,10.2802433 Z M7.34480911,10.2122433 C6.40592503,10.2122433 5.64480911,10.9733593 5.64480911,11.9122433 C5.64480911,12.3631114 5.82391574,12.795513 6.14272758,13.1143249 C6.46153942,13.4331367 6.89394108,13.6122433 7.34480911,13.6122433 C8.28369318,13.6122433 9.04480911,12.8511274 9.04480911,11.9122433 C9.04480911,10.9733593 8.28369318,10.2122433 7.34480911,10.2122433 Z"></path></clipPath></defs><g transform="translate(-292.0 -611.0)"><g clip-path="url(#i0)"><g transform="translate(16.0 581.0)"><g transform="translate(276.0 30.0)"><g clip-path="url(#i1)"><polygon points="0,0 34,0 34,34 0,34 0,0" stroke="none" fill="#FF4400"></polygon></g><g transform="translate(5.694190891693973 6.787756659502836)"><g clip-path="url(#i2)"><polygon points="5.42101086e-20,1.73472348e-18 22.6451078,1.73472348e-18 22.6451078,20.1232433 5.42101086e-20,20.1232433 5.42101086e-20,1.73472348e-18" stroke="none" fill="#FFFFFF"></polygon></g></g></g></g></g></g></svg>