<?xml version="1.0" encoding="UTF-8"?>
<svg width="34px" height="34px" viewBox="0 0 34 34" version="1.1" xmlns="http://www.w3.org/2000/svg" xmlns:xlink="http://www.w3.org/1999/xlink">
    <title>编组 21</title>
    <g id="分享" stroke="none" stroke-width="1" fill="none" fill-rule="evenodd">
        <g id="个人中心入口" transform="translate(-358.000000, -834.000000)" fill="#CC2127" fill-rule="nonzero">
            <g id="书籍" transform="translate(202.000000, 274.000000)">
                <g id="编组-4备份" transform="translate(24.000000, 530.000000)">
                    <g id="编组-21" transform="translate(132.000000, 30.000000)">
                        <path d="M17,0 C7.61136365,0 0,7.61136365 0,17 C0,26.3886364 7.61136365,34 17,34 C26.3886364,34 34,26.3886364 34,17 C34,7.61136365 26.3886364,0 17,0 Z M18.564,22.1479091 C17.3075454,22.1479091 16.1252727,21.454 15.7188182,20.6658182 C15.7188182,20.6658182 15.0434545,23.4043636 14.8997273,23.9329091 C14.6586364,24.8261818 14.1934545,25.7179091 13.7622727,26.4241818 C13.1471818,27.2278182 12.4378181,26.6312727 12.3528181,25.8987273 C12.325,25.0827273 12.3543636,24.1168182 12.5568181,23.2374545 C12.7809091,22.2730909 14.0543636,16.7604545 14.0543636,16.7604545 C14.0543636,16.7604545 13.681909,16.0016364 13.681909,14.8796364 C13.681909,13.1178182 14.6818181,11.8026364 15.9274545,11.8026364 C16.9860908,11.8026364 17.4976363,12.6155454 17.4976363,13.5876364 C17.4976363,14.6740909 16.8191817,16.2999091 16.469909,17.8051818 C16.1778181,19.0662727 17.0896363,20.094 18.3074545,20.094 C20.5128181,20.094 21.9995454,17.2009091 21.9995454,13.7746363 C21.9995454,11.169 20.2809999,9.22018176 17.1545454,9.22018176 C13.6231817,9.22018176 11.4224545,11.9092727 11.4224545,14.9120908 C11.4224545,15.9475454 11.7207272,16.6785454 12.1905454,17.2426363 C12.4053635,17.5022726 12.4362726,17.6073635 12.3574545,17.9056363 C12.3018181,18.1250908 12.1735454,18.6505454 12.1209999,18.8591817 C12.0437272,19.1605454 11.8041817,19.2671817 11.5383635,19.155909 C9.9109999,18.4774544 9.1537272,16.6584544 9.1537272,14.6153635 C9.1537272,11.2385454 11.9432726,7.18945446 17.4744545,7.18945446 C21.9191817,7.18945446 24.8447279,10.4735454 24.8447279,13.9987272 C24.8462727,18.6644546 22.3070909,22.1479091 18.564,22.1479091 Z" id="形状"></path>
                    </g>
                </g>
            </g>
        </g>
    </g>
</svg>