<?xml version="1.0" encoding="UTF-8"?>
<svg width="34px" height="34px" viewBox="0 0 34 34" version="1.1" xmlns="http://www.w3.org/2000/svg" xmlns:xlink="http://www.w3.org/1999/xlink">
    <title>编组 22</title>
    <g id="分享" stroke="none" stroke-width="1" fill="none" fill-rule="evenodd">
        <g id="个人中心入口" transform="translate(-270.000000, -834.000000)">
            <g id="书籍" transform="translate(202.000000, 274.000000)">
                <g id="编组-4备份" transform="translate(24.000000, 530.000000)">
                    <g id="编组-22" transform="translate(44.000000, 30.000000)">
                        <circle id="椭圆形备份-3" fill="#55ACEE" cx="17" cy="17" r="17"></circle>
                        <g id="编组" transform="translate(9.208333, 10.625000)" fill="#FFFFFF" fill-rule="nonzero">
                            <path d="M14.6329816,3.83076939 C14.6329816,3.68350381 14.6300505,3.53789974 14.6232973,3.39329258 C15.2765698,2.9242193 15.8433734,2.33704001 16.2916667,1.66512348 C15.6828708,1.92909772 15.0350497,2.09988917 14.3715922,2.17133162 C15.0621074,1.76185133 15.5916682,1.10696533 15.8419078,0.321068882 C15.1953598,0.698925016 14.4801883,0.969059595 13.7197853,1.10981759 C13.1105087,0.441750225 12.2410497,0.0162363227 11.279863,0.000424246236 C9.43387182,-0.0289845623 7.93743445,1.47427082 7.93743443,3.3575977 C7.93743443,3.62529541 7.96648729,3.88490707 8.02416195,4.13560195 C5.24434143,3.9632198 2.78105619,2.56887669 1.13331984,0.466894491 C0.845808675,0.970499584 0.680859758,1.55906347 0.680859758,2.18980212 C0.680859758,3.38276964 1.27096887,4.44306523 2.16758411,5.06873627 C1.6186835,5.04481045 1.10449688,4.88461276 0.653502373,4.62195498 L0.653502373,4.66576359 C0.653502373,6.33309356 1.80601836,7.7300674 3.33527311,8.05600119 C3.0549174,8.13284624 2.75921628,8.17283336 2.45509527,8.17139337 C2.24379439,8.17034133 2.03318003,8.14811438 1.82665134,8.10507126 C2.25158162,9.47141785 3.48657207,10.4696559 4.94866904,10.5029138 C3.80437176,11.4172177 2.36290779,11.9633575 0.797904531,11.9595361 C0.52806647,11.9595361 0.261418199,11.9420902 0,11.910466 C1.4797988,12.8886274 3.23636121,13.4583333 5.12465288,13.4583333 C11.2714431,13.4597453 14.6329816,8.30403762 14.6329816,3.83076939 L14.6329816,3.83076939 Z" id="路径"></path>
                        </g>
                    </g>
                </g>
            </g>
        </g>
    </g>
</svg>